<?xml version="1.0" standalone="no"?>
<!DOCTYPE svg PUBLIC "-//W3C//DTD SVG 20010904//EN"
 "http://www.w3.org/TR/2001/REC-SVG-20010904/DTD/svg10.dtd">
<svg version="1.0" xmlns="http://www.w3.org/2000/svg"
 width="452pt" height="452pt" viewBox="0 0 452.000000 452.000000"
 preserveAspectRatio="xMidYMid meet">

<g transform="translate(0.000000,452.000000) scale(0.100000,-0.100000)"
fill="#000000" stroke="none">
<path d="M1950 4324 c-224 -48 -358 -210 -405 -486 l-6 -37 -442 -3 c-434 -3
-443 -3 -483 -25 -64 -34 -103 -71 -132 -127 l-27 -51 -3 -1539 c-3 -1754 -10
-1610 82 -1701 92 -92 -56 -85 1726 -85 1782 0 1634 -7 1726 85 92 91 85 -53
82 1701 l-3 1539 -24 45 c-32 62 -67 97 -126 127 -42 22 -70 27 -180 33 -178
11 -261 39 -785 268 -396 172 -549 226 -724 257 -107 18 -189 18 -276 -1z
m336 -200 c156 -40 478 -166 724 -282 l85 -40 -686 -1 -686 -1 8 48 c50 272
229 361 555 276z m-751 -644 l0 -135 -450 0 -450 0 0 106 c0 93 3 110 20 129
11 12 29 26 40 31 11 4 204 7 430 6 l410 -2 0 -135z m2322 107 c27 -27 28 -31
28 -135 l0 -107 -1082 -3 -1083 -2 0 140 0 140 1055 -2 1055 -3 27 -28z
m-2497 -493 c0 -107 45 -172 136 -195 44 -11 44 -12 44 -55 l0 -44 90 0 90 0
0 45 c0 43 1 44 40 55 85 23 139 101 140 203 l0 57 995 0 995 0 -2 -1127 -3
-1128 -1625 0 -1625 0 -3 1128 -2 1127 365 0 365 0 0 -66z m2530 -2469 c0
-105 -11 -140 -51 -161 -42 -21 -3116 -21 -3158 0 -40 21 -51 56 -51 161 l0
95 1630 0 1630 0 0 -95z"/>
<path d="M1975 2699 c-154 -60 -355 -139 -448 -175 l-167 -66 2 -561 3 -561
448 -174 449 -174 446 174 447 174 0 563 0 562 -435 170 c-239 93 -442 171
-450 173 -8 3 -141 -45 -295 -105z m602 -206 c167 -65 303 -121 303 -124 0 -3
-139 -68 -310 -144 l-310 -137 -310 137 c-170 76 -310 141 -310 144 0 7 600
240 619 241 8 0 151 -53 318 -117z m-702 -432 l290 -129 3 -356 c1 -196 0
-356 -2 -356 -2 0 -120 45 -262 101 -143 55 -283 110 -311 121 l-53 19 0 375
0 374 23 -10 c12 -6 153 -68 312 -139z m1101 -598 c-4 -5 -615 -243 -622 -243
-2 0 -3 160 -2 356 l3 355 310 138 310 138 3 -370 c1 -204 0 -372 -2 -374z"/>
</g>
</svg>
