<?xml version="1.0" standalone="no"?>
<!DOCTYPE svg PUBLIC "-//W3C//DTD SVG 20010904//EN"
 "http://www.w3.org/TR/2001/REC-SVG-20010904/DTD/svg10.dtd">
<svg version="1.0" xmlns="http://www.w3.org/2000/svg"
 width="24px" height="24px" viewBox="0 0 512.000000 512.000000"
 preserveAspectRatio="xMidYMid meet">

<g transform="translate(0.000000,512.000000) scale(0.100000,-0.100000)"
fill="#000000" stroke="none">
<path d="M2360 5100 c-457 -57 -844 -245 -1166 -565 -341 -339 -542 -797 -561
-1275 -10 -264 18 -463 98 -704 209 -625 724 -1101 1371 -1267 464 -118 991
-46 1410 193 816 465 1182 1420 887 2313 -96 290 -279 572 -512 789 -287 269
-641 442 -1022 501 -123 19 -403 27 -505 15z m541 -244 c163 -34 283 -76 434
-151 518 -258 870 -763 936 -1345 16 -142 7 -376 -21 -510 -140 -687 -638
-1199 -1328 -1362 -69 -16 -133 -21 -313 -25 -203 -5 -237 -3 -340 17 -139 26
-351 96 -462 151 -183 92 -335 207 -493 372 -220 230 -362 505 -431 836 -23
110 -26 151 -27 321 -1 210 6 272 54 456 162 618 690 1117 1311 1238 217 43
482 43 680 2z"/>
<path d="M1999 4541 c-102 -40 -192 -125 -246 -230 -26 -52 -28 -65 -28 -171
0 -115 0 -116 35 -174 43 -71 115 -139 245 -231 122 -87 188 -151 221 -218 15
-29 28 -54 30 -56 3 -3 26 16 52 42 26 25 73 58 106 73 76 34 178 36 279 4 38
-12 70 -20 71 -18 13 19 29 140 33 254 7 179 -10 272 -73 401 -81 169 -235
289 -419 328 -99 21 -248 19 -306 -4z"/>
<path d="M3530 3459 c-19 -6 -102 -42 -185 -80 -156 -72 -218 -89 -316 -89
-33 0 -59 -1 -59 -2 0 -2 7 -35 15 -75 27 -127 -11 -237 -117 -342 l-62 -61
44 -46 c59 -59 171 -136 262 -179 216 -103 446 -99 634 10 117 68 247 238 281
367 46 177 -54 391 -222 473 -50 25 -73 30 -149 32 -50 1 -107 -2 -126 -8z"/>
<path d="M2454 3396 c-96 -45 -140 -128 -132 -253 5 -82 36 -137 105 -182 70
-47 180 -54 253 -16 43 22 100 82 117 123 19 46 20 157 1 202 -55 129 -213
187 -344 126z"/>
<path d="M2040 3121 c-243 -91 -417 -232 -500 -405 -48 -102 -63 -167 -62
-271 1 -103 22 -187 74 -293 52 -106 116 -172 205 -215 65 -30 73 -32 193 -32
120 0 127 1 178 30 30 16 78 55 107 87 80 87 106 168 125 400 11 138 37 228
85 299 16 21 26 41 24 43 -2 2 -26 9 -54 15 -68 17 -125 52 -173 106 -50 57
-71 101 -92 189 -9 39 -21 71 -26 72 -5 2 -43 -10 -84 -25z"/>
<path d="M2167 963 c-3 -10 -8 -31 -11 -46 -19 -84 -122 -189 -271 -276 -285
-167 -352 -209 -402 -255 -84 -76 -97 -108 -101 -253 l-4 -123 1187 0 1187 0
-4 122 c-3 79 -10 136 -20 158 -31 72 -127 146 -368 284 -261 148 -350 230
-386 351 -8 30 -19 55 -24 55 -5 0 -38 -7 -74 -15 -161 -37 -472 -37 -619 0
-75 19 -85 19 -90 -2z"/>
</g>
</svg>
