<?xml version="1.0" standalone="no"?>
<!DOCTYPE svg PUBLIC "-//W3C//DTD SVG 20010904//EN"
 "http://www.w3.org/TR/2001/REC-SVG-20010904/DTD/svg10.dtd">
<svg version="1.0" xmlns="http://www.w3.org/2000/svg"
 width="512pt" height="512pt" viewBox="0 0 512.000000 512.000000"
 preserveAspectRatio="xMidYMid meet">

<g transform="translate(0.000000,512.000000) scale(0.100000,-0.100000)"
fill="#000000" stroke="none">
<path d="M2495 4500 c-97 -15 -227 -56 -342 -107 l-106 -48 -19 -55 c-38 -109
-68 -255 -68 -325 1 -116 42 -180 152 -230 179 -82 338 -65 517 55 84 57 113
81 278 225 44 39 126 107 184 152 57 45 126 104 152 131 l49 49 -86 36 c-108
45 -219 80 -321 102 -94 20 -305 28 -390 15z"/>
<path d="M3310 4208 c-104 -78 -170 -132 -300 -248 -275 -246 -477 -361 -681
-390 -177 -25 -366 65 -436 209 -24 48 -28 71 -31 161 -3 86 1 122 21 200 14
52 24 96 22 98 -6 6 -127 -83 -196 -145 -233 -209 -386 -470 -449 -768 -13
-64 -23 -154 -26 -250 l-5 -150 25 52 c88 183 259 351 441 434 128 58 206 74
365 73 177 0 241 -14 395 -89 340 -166 534 -516 495 -894 -20 -193 -101 -368
-237 -511 -149 -157 -328 -252 -528 -278 l-60 -8 95 -31 c511 -167 1045 -62
1445 284 240 207 402 483 471 803 26 120 27 419 1 540 -25 114 -70 248 -117
347 -113 233 -325 465 -544 597 -33 20 -62 36 -65 36 -3 0 -49 -32 -101 -72z"/>
<path d="M1845 3276 c-220 -51 -406 -196 -500 -391 -56 -113 -77 -204 -77
-325 0 -122 21 -212 79 -330 39 -80 59 -108 137 -185 77 -77 106 -98 186 -137
128 -63 221 -82 363 -76 619 27 919 753 506 1222 -74 84 -211 169 -334 208
-80 26 -277 33 -360 14z m247 -393 c164 -77 268 -239 268 -418 0 -131 -47
-242 -142 -332 -165 -155 -406 -171 -586 -39 -139 103 -208 270 -182 440 27
176 147 314 325 372 26 9 78 13 145 11 94 -2 112 -6 172 -34z"/>
<path d="M1168 2121 c-122 -62 -222 -131 -358 -248 -190 -163 -388 -397 -429
-507 -73 -196 36 -276 404 -296 94 -5 267 -14 385 -20 963 -48 1757 -157 2538
-349 297 -73 461 -95 657 -88 216 8 327 53 376 153 18 38 21 58 17 122 -4 72
-10 87 -76 218 -206 405 -366 616 -689 907 l-31 29 -112 -107 c-224 -214 -514
-363 -850 -436 -137 -30 -412 -37 -543 -15 -166 28 -343 93 -459 168 -32 20
-73 35 -121 43 -93 16 -207 61 -283 110 -85 57 -200 178 -264 278 -30 47 -58
86 -61 87 -3 0 -49 -22 -101 -49z"/>
</g>
</svg>
